<mxfile host="app.diagrams.net" modified="2024-05-15T08:52:39.467Z" agent="Mozilla/5.0 (Windows NT 10.0; Win64; x64) AppleWebKit/537.36 (KHTML, like Gecko) Chrome/124.0.0.0 Safari/537.36" etag="QVo4x0ZgeDD_MeV7i2zZ" version="24.3.1" type="device">
  <diagram name="Page-1" id="-ftfYrixE5pk-zxq22pA">
    <mxGraphModel dx="2901" dy="2267" grid="1" gridSize="10" guides="1" tooltips="1" connect="1" arrows="1" fold="1" page="1" pageScale="1" pageWidth="827" pageHeight="1169" math="0" shadow="0">
      <root>
        <mxCell id="0" />
        <mxCell id="1" parent="0" />
        <mxCell id="z5ERt4LcDIbDBIt0j3bM-1" value="" style="whiteSpace=wrap;html=1;aspect=fixed;" parent="1" vertex="1">
          <mxGeometry x="-45" y="-10" width="680" height="680" as="geometry" />
        </mxCell>
        <mxCell id="z5ERt4LcDIbDBIt0j3bM-2" value="Utilisateurs" style="shape=umlActor;verticalLabelPosition=bottom;verticalAlign=top;html=1;outlineConnect=0;" parent="1" vertex="1">
          <mxGeometry x="-150" y="380" width="30" height="60" as="geometry" />
        </mxCell>
        <mxCell id="z5ERt4LcDIbDBIt0j3bM-3" value="Luminous Movies" style="text;html=1;align=center;verticalAlign=middle;whiteSpace=wrap;rounded=0;" parent="1" vertex="1">
          <mxGeometry x="235" y="10" width="110" height="30" as="geometry" />
        </mxCell>
        <mxCell id="z5ERt4LcDIbDBIt0j3bM-7" value="Admin" style="shape=umlActor;verticalLabelPosition=bottom;verticalAlign=top;html=1;outlineConnect=0;" parent="1" vertex="1">
          <mxGeometry x="730" y="310" width="30" height="60" as="geometry" />
        </mxCell>
        <mxCell id="z5ERt4LcDIbDBIt0j3bM-9" value="Informations sur le film" style="ellipse;whiteSpace=wrap;html=1;" parent="1" vertex="1">
          <mxGeometry x="330" y="50" width="140" height="50" as="geometry" />
        </mxCell>
        <mxCell id="z5ERt4LcDIbDBIt0j3bM-10" value="extends" style="html=1;verticalAlign=bottom;endArrow=open;dashed=1;endSize=8;curved=0;rounded=0;exitX=0;exitY=0.5;exitDx=0;exitDy=0;entryX=1;entryY=0.5;entryDx=0;entryDy=0;" parent="1" source="z5ERt4LcDIbDBIt0j3bM-9" target="AQo8w5ICO8bp_Hgfa-j5-5" edge="1">
          <mxGeometry relative="1" as="geometry">
            <mxPoint x="440" y="220" as="sourcePoint" />
            <mxPoint x="360" y="220" as="targetPoint" />
          </mxGeometry>
        </mxCell>
        <mxCell id="z5ERt4LcDIbDBIt0j3bM-11" value="Consulter les différents films&amp;nbsp;" style="ellipse;whiteSpace=wrap;html=1;" parent="1" vertex="1">
          <mxGeometry x="367" y="370" width="140" height="59.5" as="geometry" />
        </mxCell>
        <mxCell id="z5ERt4LcDIbDBIt0j3bM-12" value="Ajouter un film" style="ellipse;whiteSpace=wrap;html=1;" parent="1" vertex="1">
          <mxGeometry x="230" y="520" width="120" height="50" as="geometry" />
        </mxCell>
        <mxCell id="z5ERt4LcDIbDBIt0j3bM-13" value="extends" style="html=1;verticalAlign=bottom;endArrow=open;dashed=1;endSize=8;curved=0;rounded=0;exitX=0.5;exitY=0;exitDx=0;exitDy=0;entryX=0;entryY=1;entryDx=0;entryDy=0;" parent="1" source="z5ERt4LcDIbDBIt0j3bM-12" target="z5ERt4LcDIbDBIt0j3bM-11" edge="1">
          <mxGeometry relative="1" as="geometry">
            <mxPoint x="440" y="220" as="sourcePoint" />
            <mxPoint x="360" y="220" as="targetPoint" />
          </mxGeometry>
        </mxCell>
        <mxCell id="z5ERt4LcDIbDBIt0j3bM-14" value="Modifier un film" style="ellipse;whiteSpace=wrap;html=1;" parent="1" vertex="1">
          <mxGeometry x="367" y="520" width="120" height="50" as="geometry" />
        </mxCell>
        <mxCell id="z5ERt4LcDIbDBIt0j3bM-16" value="extends" style="html=1;verticalAlign=bottom;endArrow=open;dashed=1;endSize=8;curved=0;rounded=0;exitX=0.5;exitY=0;exitDx=0;exitDy=0;entryX=0.5;entryY=1;entryDx=0;entryDy=0;" parent="1" source="z5ERt4LcDIbDBIt0j3bM-14" target="z5ERt4LcDIbDBIt0j3bM-11" edge="1">
          <mxGeometry relative="1" as="geometry">
            <mxPoint x="440" y="220" as="sourcePoint" />
            <mxPoint x="360" y="220" as="targetPoint" />
          </mxGeometry>
        </mxCell>
        <mxCell id="z5ERt4LcDIbDBIt0j3bM-17" value="Supprimer un film" style="ellipse;whiteSpace=wrap;html=1;" parent="1" vertex="1">
          <mxGeometry x="500" y="520" width="120" height="50" as="geometry" />
        </mxCell>
        <mxCell id="z5ERt4LcDIbDBIt0j3bM-18" value="extends" style="html=1;verticalAlign=bottom;endArrow=open;dashed=1;endSize=8;curved=0;rounded=0;exitX=0.5;exitY=0;exitDx=0;exitDy=0;entryX=1;entryY=1;entryDx=0;entryDy=0;" parent="1" source="z5ERt4LcDIbDBIt0j3bM-17" target="z5ERt4LcDIbDBIt0j3bM-11" edge="1">
          <mxGeometry relative="1" as="geometry">
            <mxPoint x="470" y="370" as="sourcePoint" />
            <mxPoint x="500" y="280" as="targetPoint" />
          </mxGeometry>
        </mxCell>
        <mxCell id="z5ERt4LcDIbDBIt0j3bM-19" value="" style="endArrow=none;html=1;rounded=0;exitX=0;exitY=0.3333333333333333;exitDx=0;exitDy=0;exitPerimeter=0;entryX=1;entryY=0.5;entryDx=0;entryDy=0;" parent="1" source="z5ERt4LcDIbDBIt0j3bM-7" target="z5ERt4LcDIbDBIt0j3bM-11" edge="1">
          <mxGeometry width="50" height="50" relative="1" as="geometry">
            <mxPoint x="370" y="250" as="sourcePoint" />
            <mxPoint x="420" y="200" as="targetPoint" />
          </mxGeometry>
        </mxCell>
        <mxCell id="AQo8w5ICO8bp_Hgfa-j5-1" value="Visiteur" style="shape=umlActor;verticalLabelPosition=bottom;verticalAlign=top;html=1;outlineConnect=0;" vertex="1" parent="1">
          <mxGeometry x="-150" y="120" width="30" height="60" as="geometry" />
        </mxCell>
        <mxCell id="AQo8w5ICO8bp_Hgfa-j5-5" value="Consulter le catalogue des films" style="ellipse;whiteSpace=wrap;html=1;" vertex="1" parent="1">
          <mxGeometry x="60" y="80" width="160" height="60" as="geometry" />
        </mxCell>
        <mxCell id="AQo8w5ICO8bp_Hgfa-j5-7" value="" style="endArrow=none;html=1;rounded=0;exitX=1;exitY=0.3333333333333333;exitDx=0;exitDy=0;exitPerimeter=0;entryX=0;entryY=0.5;entryDx=0;entryDy=0;" edge="1" parent="1" source="AQo8w5ICO8bp_Hgfa-j5-1" target="AQo8w5ICO8bp_Hgfa-j5-5">
          <mxGeometry width="50" height="50" relative="1" as="geometry">
            <mxPoint x="390" y="560" as="sourcePoint" />
            <mxPoint x="440" y="510" as="targetPoint" />
          </mxGeometry>
        </mxCell>
        <mxCell id="AQo8w5ICO8bp_Hgfa-j5-8" value="Rechercher un film" style="ellipse;whiteSpace=wrap;html=1;" vertex="1" parent="1">
          <mxGeometry x="75" y="171" width="130" height="59.5" as="geometry" />
        </mxCell>
        <mxCell id="AQo8w5ICO8bp_Hgfa-j5-10" value="" style="endArrow=none;html=1;rounded=0;exitX=1;exitY=0.3333333333333333;exitDx=0;exitDy=0;exitPerimeter=0;entryX=0;entryY=0.5;entryDx=0;entryDy=0;" edge="1" parent="1" source="AQo8w5ICO8bp_Hgfa-j5-1" target="AQo8w5ICO8bp_Hgfa-j5-8">
          <mxGeometry width="50" height="50" relative="1" as="geometry">
            <mxPoint x="390" y="560" as="sourcePoint" />
            <mxPoint x="440" y="510" as="targetPoint" />
          </mxGeometry>
        </mxCell>
        <mxCell id="AQo8w5ICO8bp_Hgfa-j5-11" value="" style="html=1;shadow=0;dashed=0;align=center;verticalAlign=middle;shape=mxgraph.arrows2.arrow;dy=0.6;dx=40;direction=north;notch=0;" vertex="1" parent="1">
          <mxGeometry x="-145" y="230.5" width="20" height="109.5" as="geometry" />
        </mxCell>
        <mxCell id="AQo8w5ICO8bp_Hgfa-j5-12" value="Ajouter un film en favoris" style="ellipse;whiteSpace=wrap;html=1;" vertex="1" parent="1">
          <mxGeometry x="-5" y="280" width="130" height="60" as="geometry" />
        </mxCell>
        <mxCell id="AQo8w5ICO8bp_Hgfa-j5-13" value="Consulter ces favoris" style="ellipse;whiteSpace=wrap;html=1;" vertex="1" parent="1">
          <mxGeometry x="-10" y="370" width="140" height="60" as="geometry" />
        </mxCell>
        <mxCell id="AQo8w5ICO8bp_Hgfa-j5-14" value="Noter un film" style="ellipse;whiteSpace=wrap;html=1;" vertex="1" parent="1">
          <mxGeometry y="450" width="130" height="50" as="geometry" />
        </mxCell>
        <mxCell id="AQo8w5ICO8bp_Hgfa-j5-17" value="" style="endArrow=none;html=1;rounded=0;exitX=1;exitY=0.3333333333333333;exitDx=0;exitDy=0;exitPerimeter=0;entryX=0;entryY=0.5;entryDx=0;entryDy=0;" edge="1" parent="1" source="z5ERt4LcDIbDBIt0j3bM-2" target="AQo8w5ICO8bp_Hgfa-j5-12">
          <mxGeometry width="50" height="50" relative="1" as="geometry">
            <mxPoint x="390" y="560" as="sourcePoint" />
            <mxPoint x="440" y="510" as="targetPoint" />
          </mxGeometry>
        </mxCell>
        <mxCell id="AQo8w5ICO8bp_Hgfa-j5-18" value="" style="endArrow=none;html=1;rounded=0;exitX=1;exitY=0.3333333333333333;exitDx=0;exitDy=0;exitPerimeter=0;entryX=0;entryY=0.5;entryDx=0;entryDy=0;" edge="1" parent="1" source="z5ERt4LcDIbDBIt0j3bM-2" target="AQo8w5ICO8bp_Hgfa-j5-13">
          <mxGeometry width="50" height="50" relative="1" as="geometry">
            <mxPoint x="390" y="560" as="sourcePoint" />
            <mxPoint x="440" y="510" as="targetPoint" />
          </mxGeometry>
        </mxCell>
        <mxCell id="AQo8w5ICO8bp_Hgfa-j5-19" value="" style="endArrow=none;html=1;rounded=0;exitX=1;exitY=0.3333333333333333;exitDx=0;exitDy=0;exitPerimeter=0;entryX=0;entryY=0.5;entryDx=0;entryDy=0;" edge="1" parent="1" source="z5ERt4LcDIbDBIt0j3bM-2" target="AQo8w5ICO8bp_Hgfa-j5-14">
          <mxGeometry width="50" height="50" relative="1" as="geometry">
            <mxPoint x="390" y="560" as="sourcePoint" />
            <mxPoint x="440" y="510" as="targetPoint" />
          </mxGeometry>
        </mxCell>
        <mxCell id="AQo8w5ICO8bp_Hgfa-j5-20" value="Consulter les différentes catégories" style="ellipse;whiteSpace=wrap;html=1;" vertex="1" parent="1">
          <mxGeometry x="358.5" y="270" width="157" height="59.5" as="geometry" />
        </mxCell>
        <mxCell id="AQo8w5ICO8bp_Hgfa-j5-21" value="Modifier un film" style="ellipse;whiteSpace=wrap;html=1;" vertex="1" parent="1">
          <mxGeometry x="377" y="171" width="120" height="50" as="geometry" />
        </mxCell>
        <mxCell id="AQo8w5ICO8bp_Hgfa-j5-22" value="Supprimer un film" style="ellipse;whiteSpace=wrap;html=1;" vertex="1" parent="1">
          <mxGeometry x="500" y="171" width="120" height="50" as="geometry" />
        </mxCell>
        <mxCell id="AQo8w5ICO8bp_Hgfa-j5-23" value="Ajouter un film" style="ellipse;whiteSpace=wrap;html=1;" vertex="1" parent="1">
          <mxGeometry x="247" y="171" width="120" height="50" as="geometry" />
        </mxCell>
        <mxCell id="AQo8w5ICO8bp_Hgfa-j5-24" value="extends" style="html=1;verticalAlign=bottom;endArrow=open;dashed=1;endSize=8;curved=0;rounded=0;exitX=0.5;exitY=1;exitDx=0;exitDy=0;entryX=1;entryY=0;entryDx=0;entryDy=0;" edge="1" parent="1" source="AQo8w5ICO8bp_Hgfa-j5-22" target="AQo8w5ICO8bp_Hgfa-j5-20">
          <mxGeometry relative="1" as="geometry">
            <mxPoint x="437" y="530" as="sourcePoint" />
            <mxPoint x="447" y="440" as="targetPoint" />
          </mxGeometry>
        </mxCell>
        <mxCell id="AQo8w5ICO8bp_Hgfa-j5-25" value="extends" style="html=1;verticalAlign=bottom;endArrow=open;dashed=1;endSize=8;curved=0;rounded=0;exitX=0.5;exitY=1;exitDx=0;exitDy=0;entryX=0.5;entryY=0;entryDx=0;entryDy=0;" edge="1" parent="1" source="AQo8w5ICO8bp_Hgfa-j5-21" target="AQo8w5ICO8bp_Hgfa-j5-20">
          <mxGeometry relative="1" as="geometry">
            <mxPoint x="447" y="540" as="sourcePoint" />
            <mxPoint x="457" y="450" as="targetPoint" />
          </mxGeometry>
        </mxCell>
        <mxCell id="AQo8w5ICO8bp_Hgfa-j5-26" value="extends" style="html=1;verticalAlign=bottom;endArrow=open;dashed=1;endSize=8;curved=0;rounded=0;exitX=0.5;exitY=1;exitDx=0;exitDy=0;entryX=0;entryY=0;entryDx=0;entryDy=0;" edge="1" parent="1" source="AQo8w5ICO8bp_Hgfa-j5-23" target="AQo8w5ICO8bp_Hgfa-j5-20">
          <mxGeometry relative="1" as="geometry">
            <mxPoint x="457" y="550" as="sourcePoint" />
            <mxPoint x="467" y="460" as="targetPoint" />
          </mxGeometry>
        </mxCell>
        <mxCell id="AQo8w5ICO8bp_Hgfa-j5-27" value="" style="endArrow=none;html=1;rounded=0;exitX=1;exitY=0.5;exitDx=0;exitDy=0;entryX=0;entryY=0.3333333333333333;entryDx=0;entryDy=0;entryPerimeter=0;" edge="1" parent="1" source="AQo8w5ICO8bp_Hgfa-j5-20" target="z5ERt4LcDIbDBIt0j3bM-7">
          <mxGeometry width="50" height="50" relative="1" as="geometry">
            <mxPoint x="390" y="560" as="sourcePoint" />
            <mxPoint x="440" y="510" as="targetPoint" />
          </mxGeometry>
        </mxCell>
        <mxCell id="AQo8w5ICO8bp_Hgfa-j5-29" value="Connexion" style="ellipse;whiteSpace=wrap;html=1;" vertex="1" parent="1">
          <mxGeometry x="190" y="350" width="110" height="50" as="geometry" />
        </mxCell>
        <mxCell id="AQo8w5ICO8bp_Hgfa-j5-30" value="include" style="html=1;verticalAlign=bottom;endArrow=open;dashed=1;endSize=8;curved=0;rounded=0;exitX=1;exitY=0.5;exitDx=0;exitDy=0;entryX=0;entryY=0;entryDx=0;entryDy=0;" edge="1" parent="1" source="AQo8w5ICO8bp_Hgfa-j5-12" target="AQo8w5ICO8bp_Hgfa-j5-29">
          <mxGeometry relative="1" as="geometry">
            <mxPoint x="300" y="530" as="sourcePoint" />
            <mxPoint x="397" y="431" as="targetPoint" />
          </mxGeometry>
        </mxCell>
        <mxCell id="AQo8w5ICO8bp_Hgfa-j5-32" value="include" style="html=1;verticalAlign=bottom;endArrow=open;dashed=1;endSize=8;curved=0;rounded=0;exitX=1;exitY=0.5;exitDx=0;exitDy=0;entryX=0;entryY=0.5;entryDx=0;entryDy=0;" edge="1" parent="1" source="AQo8w5ICO8bp_Hgfa-j5-13" target="AQo8w5ICO8bp_Hgfa-j5-29">
          <mxGeometry relative="1" as="geometry">
            <mxPoint x="135" y="320" as="sourcePoint" />
            <mxPoint x="255" y="370" as="targetPoint" />
          </mxGeometry>
        </mxCell>
        <mxCell id="AQo8w5ICO8bp_Hgfa-j5-34" value="include" style="html=1;verticalAlign=bottom;endArrow=open;dashed=1;endSize=8;curved=0;rounded=0;exitX=1;exitY=0.5;exitDx=0;exitDy=0;entryX=0;entryY=1;entryDx=0;entryDy=0;" edge="1" parent="1" source="AQo8w5ICO8bp_Hgfa-j5-14" target="AQo8w5ICO8bp_Hgfa-j5-29">
          <mxGeometry relative="1" as="geometry">
            <mxPoint x="140" y="410" as="sourcePoint" />
            <mxPoint x="200" y="395" as="targetPoint" />
          </mxGeometry>
        </mxCell>
        <mxCell id="AQo8w5ICO8bp_Hgfa-j5-35" value="include" style="html=1;verticalAlign=bottom;endArrow=open;dashed=1;endSize=8;curved=0;rounded=0;exitX=0;exitY=0.5;exitDx=0;exitDy=0;entryX=1;entryY=0;entryDx=0;entryDy=0;" edge="1" parent="1" source="AQo8w5ICO8bp_Hgfa-j5-20" target="AQo8w5ICO8bp_Hgfa-j5-29">
          <mxGeometry relative="1" as="geometry">
            <mxPoint x="135" y="320" as="sourcePoint" />
            <mxPoint x="231" y="387" as="targetPoint" />
          </mxGeometry>
        </mxCell>
        <mxCell id="AQo8w5ICO8bp_Hgfa-j5-36" value="include" style="html=1;verticalAlign=bottom;endArrow=open;dashed=1;endSize=8;curved=0;rounded=0;exitX=0;exitY=0.5;exitDx=0;exitDy=0;entryX=1;entryY=1;entryDx=0;entryDy=0;" edge="1" parent="1" source="z5ERt4LcDIbDBIt0j3bM-11" target="AQo8w5ICO8bp_Hgfa-j5-29">
          <mxGeometry relative="1" as="geometry">
            <mxPoint x="369" y="310" as="sourcePoint" />
            <mxPoint x="309" y="357" as="targetPoint" />
          </mxGeometry>
        </mxCell>
        <mxCell id="AQo8w5ICO8bp_Hgfa-j5-38" value="Consulter son profil" style="ellipse;whiteSpace=wrap;html=1;" vertex="1" parent="1">
          <mxGeometry x="7.5" y="520" width="115" height="50" as="geometry" />
        </mxCell>
        <mxCell id="AQo8w5ICO8bp_Hgfa-j5-40" value="" style="endArrow=none;html=1;rounded=0;exitX=1;exitY=0.3333333333333333;exitDx=0;exitDy=0;exitPerimeter=0;entryX=0;entryY=0.5;entryDx=0;entryDy=0;" edge="1" parent="1" source="z5ERt4LcDIbDBIt0j3bM-2" target="AQo8w5ICO8bp_Hgfa-j5-38">
          <mxGeometry width="50" height="50" relative="1" as="geometry">
            <mxPoint x="390" y="460" as="sourcePoint" />
            <mxPoint x="440" y="410" as="targetPoint" />
          </mxGeometry>
        </mxCell>
        <mxCell id="AQo8w5ICO8bp_Hgfa-j5-41" value="Modifier ces informations" style="ellipse;whiteSpace=wrap;html=1;" vertex="1" parent="1">
          <mxGeometry x="160" y="600" width="120" height="50" as="geometry" />
        </mxCell>
        <mxCell id="AQo8w5ICO8bp_Hgfa-j5-42" value="extends" style="html=1;verticalAlign=bottom;endArrow=open;dashed=1;endSize=8;curved=0;rounded=0;exitX=0;exitY=0;exitDx=0;exitDy=0;entryX=1;entryY=1;entryDx=0;entryDy=0;" edge="1" parent="1" source="AQo8w5ICO8bp_Hgfa-j5-41" target="AQo8w5ICO8bp_Hgfa-j5-38">
          <mxGeometry relative="1" as="geometry">
            <mxPoint x="437" y="530" as="sourcePoint" />
            <mxPoint x="447" y="440" as="targetPoint" />
          </mxGeometry>
        </mxCell>
        <mxCell id="AQo8w5ICO8bp_Hgfa-j5-43" value="include" style="html=1;verticalAlign=bottom;endArrow=open;dashed=1;endSize=8;curved=0;rounded=0;exitX=1;exitY=0.5;exitDx=0;exitDy=0;entryX=0.5;entryY=1;entryDx=0;entryDy=0;" edge="1" parent="1" source="AQo8w5ICO8bp_Hgfa-j5-38" target="AQo8w5ICO8bp_Hgfa-j5-29">
          <mxGeometry relative="1" as="geometry">
            <mxPoint x="140" y="485" as="sourcePoint" />
            <mxPoint x="216" y="403" as="targetPoint" />
          </mxGeometry>
        </mxCell>
      </root>
    </mxGraphModel>
  </diagram>
</mxfile>
